# xmcd
# Copyright (C) 1995-1998 Ti Kan
#
# Track frame offsets:
#       182
#       14315
#       23617
#       34665
#       43195
#       56732
#       69365
#       79032
#       90000
#       99650
#       110377
#       121032
#       133970
#       143357
#       155905
#       176175
#       188857
#       200622
#       212022
#       224852
#
# Disc length: 3234 seconds
#
# Revision: 0
# Processed by: cddbd v1.5.2PL0 Copyright (c) Steve Scherf et al.
# Submitted via: CD-Transfer v1.0
#
DISCID=1b0ca014
DTITLE=Elvis Presley - Elvis Gold
DYEAR=1900
DGENRE=
TTITLE0=Are You Lonsome Tonight
TTITLE1=Wooden Heart
TTITLE2=Flaming Star
TTITLE3=Surrender
TTITLE4=Can´t Stop Falling In Love
TTITLE5=Kiss Me Quick
TTITLE6=His Latest Flame
TTITLE7=Good Luck Charm
TTITLE8=Return The Sender
TTITLE9=(You`re The) Devil In Disguise
TTITLE10=Viva Las Vegas
TTITLE11=Love Letters
TTITLE12=Guitar Man
TTITLE13=In The Ghetto
TTITLE14=Suspicious Minds
TTITLE15=Don`t Cry Daddy
TTITLE16=The Wonder Of You
TTITLE17=You Don`t Have T0o Say You Love Me
TTITLE18=Burning Love
TTITLE19=My Way
EXTD=
EXTT0=
EXTT1=
EXTT2=
EXTT3=
EXTT4=
EXTT5=
EXTT6=
EXTT7=
EXTT8=
EXTT9=
EXTT10=
EXTT11=
EXTT12=
EXTT13=
EXTT14=
EXTT15=
EXTT16=
EXTT17=
EXTT18=
EXTT19=
PLAYORDER=
